<svg xmlns="http://www.w3.org/2000/svg" xmlns:xlink="http://www.w3.org/1999/xlink" width="500" zoomAndPan="magnify" viewBox="0 0 375 374.999991" height="500" preserveAspectRatio="xMidYMid meet" version="1.0"><defs><clipPath id="38dd734905"><path d="M 100 37.5 L 296 37.5 L 296 233 L 100 233 Z M 100 37.5 " clip-rule="nonzero"/></clipPath><clipPath id="0e04fb6b3e"><path d="M 320 243 L 372.75 243 L 372.75 292 L 320 292 Z M 320 243 " clip-rule="nonzero"/></clipPath></defs><path fill="#5d85bb" d="M 150.042969 135.074219 C 150.042969 136.054688 149.949219 137.027344 149.757812 137.988281 C 149.566406 138.949219 149.28125 139.882812 148.90625 140.792969 C 148.53125 141.699219 148.070312 142.558594 147.523438 143.375 C 146.980469 144.191406 146.359375 144.945312 145.667969 145.636719 C 144.972656 146.332031 144.21875 146.953125 143.402344 147.496094 C 142.585938 148.042969 141.722656 148.5 140.816406 148.878906 C 139.910156 149.253906 138.976562 149.535156 138.015625 149.726562 C 137.050781 149.917969 136.078125 150.015625 135.097656 150.015625 C 134.117188 150.015625 133.144531 149.917969 132.183594 149.726562 C 131.21875 149.535156 130.285156 149.253906 129.378906 148.878906 C 128.472656 148.5 127.609375 148.042969 126.796875 147.496094 C 125.980469 146.953125 125.222656 146.332031 124.53125 145.636719 C 123.835938 144.945312 123.21875 144.191406 122.671875 143.375 C 122.125 142.558594 121.667969 141.699219 121.289062 140.792969 C 120.914062 139.882812 120.632812 138.949219 120.441406 137.988281 C 120.25 137.027344 120.152344 136.054688 120.152344 135.074219 C 120.152344 134.09375 120.25 133.121094 120.441406 132.160156 C 120.632812 131.195312 120.914062 130.261719 121.289062 129.355469 C 121.667969 128.449219 122.125 127.589844 122.671875 126.773438 C 123.21875 125.957031 123.835938 125.203125 124.53125 124.507812 C 125.222656 123.8125 125.980469 123.195312 126.796875 122.648438 C 127.609375 122.105469 128.472656 121.644531 129.378906 121.269531 C 130.285156 120.894531 131.21875 120.609375 132.183594 120.417969 C 133.144531 120.226562 134.117188 120.132812 135.097656 120.132812 C 136.078125 120.132812 137.050781 120.226562 138.015625 120.417969 C 138.976562 120.609375 139.910156 120.894531 140.816406 121.269531 C 141.722656 121.644531 142.585938 122.105469 143.402344 122.648438 C 144.21875 123.195312 144.972656 123.8125 145.667969 124.507812 C 146.359375 125.203125 146.980469 125.957031 147.523438 126.773438 C 148.070312 127.589844 148.53125 128.449219 148.90625 129.355469 C 149.28125 130.261719 149.566406 131.195312 149.757812 132.160156 C 149.949219 133.121094 150.042969 134.09375 150.042969 135.074219 Z M 150.042969 135.074219 " fill-opacity="1" fill-rule="nonzero"/><path fill="#2b6c6e" d="M 213.070312 72.074219 C 213.070312 73.054688 212.972656 74.027344 212.78125 74.988281 C 212.589844 75.949219 212.308594 76.886719 211.929688 77.792969 C 211.554688 78.699219 211.09375 79.558594 210.550781 80.375 C 210.003906 81.191406 209.386719 81.945312 208.691406 82.640625 C 207.996094 83.332031 207.242188 83.953125 206.425781 84.496094 C 205.609375 85.042969 204.75 85.503906 203.84375 85.878906 C 202.9375 86.253906 202 86.535156 201.039062 86.726562 C 200.078125 86.917969 199.105469 87.015625 198.125 87.015625 C 197.140625 87.015625 196.171875 86.917969 195.207031 86.726562 C 194.246094 86.535156 193.308594 86.253906 192.402344 85.878906 C 191.496094 85.503906 190.636719 85.042969 189.820312 84.496094 C 189.003906 83.953125 188.25 83.332031 187.554688 82.640625 C 186.859375 81.945312 186.242188 81.191406 185.695312 80.375 C 185.152344 79.558594 184.691406 78.699219 184.316406 77.792969 C 183.941406 76.886719 183.65625 75.949219 183.464844 74.988281 C 183.273438 74.027344 183.175781 73.054688 183.175781 72.074219 C 183.175781 71.09375 183.273438 70.121094 183.464844 69.160156 C 183.65625 68.195312 183.941406 67.261719 184.316406 66.355469 C 184.691406 65.449219 185.152344 64.589844 185.695312 63.773438 C 186.242188 62.957031 186.859375 62.203125 187.554688 61.507812 C 188.25 60.816406 189.003906 60.195312 189.820312 59.652344 C 190.636719 59.105469 191.496094 58.644531 192.402344 58.269531 C 193.308594 57.894531 194.246094 57.609375 195.207031 57.417969 C 196.171875 57.226562 197.140625 57.132812 198.125 57.132812 C 199.105469 57.132812 200.078125 57.226562 201.039062 57.417969 C 202 57.609375 202.9375 57.894531 203.84375 58.269531 C 204.75 58.644531 205.609375 59.105469 206.425781 59.652344 C 207.242188 60.195312 207.996094 60.816406 208.691406 61.507812 C 209.386719 62.203125 210.003906 62.957031 210.550781 63.773438 C 211.09375 64.589844 211.554688 65.449219 211.929688 66.355469 C 212.308594 67.261719 212.589844 68.195312 212.78125 69.160156 C 212.972656 70.121094 213.070312 71.09375 213.070312 72.074219 Z M 213.070312 72.074219 " fill-opacity="1" fill-rule="nonzero"/><path fill="#ec5f55" d="M 150.925781 182.144531 L 151.03125 182.257812 C 154.371094 185.597656 159.816406 185.589844 163.148438 182.257812 C 172.460938 172.945312 184.949219 167.773438 198.117188 167.773438 C 204.3125 167.773438 210.363281 168.9375 216.003906 171.128906 C 214.726562 168.582031 213.574219 165.964844 212.5625 163.296875 C 210.925781 159.378906 209.59375 155.328125 208.664062 151.167969 C 205.195312 150.617188 201.675781 150.339844 198.125 150.339844 C 182.152344 150.339844 166.769531 156.015625 154.644531 166.402344 C 154.5 166.523438 154.355469 166.644531 154.214844 166.765625 C 154.125 166.847656 154.03125 166.929688 153.941406 167.019531 L 151 169.960938 L 150.886719 170.082031 C 147.59375 173.421875 147.601562 178.828125 150.925781 182.152344 Z M 150.925781 182.144531 " fill-opacity="1" fill-rule="nonzero"/><path fill="#2b6c6e" d="M 242.296875 103.132812 L 245.3125 100.117188 C 248.652344 96.777344 248.652344 91.335938 245.3125 88.003906 L 245.199219 87.890625 C 241.859375 84.550781 236.414062 84.550781 233.082031 87.890625 C 223.769531 97.199219 211.28125 102.371094 198.117188 102.371094 C 191.765625 102.371094 185.566406 101.164062 179.808594 98.875 C 183.375 105.160156 185.992188 111.9375 187.566406 118.984375 C 190.914062 119.515625 194.316406 119.785156 197.746094 119.800781 C 212.074219 119.761719 225.917969 115.285156 237.46875 107 C 238.964844 105.90625 240.433594 104.769531 241.84375 103.546875 C 242.011719 103.402344 242.144531 103.285156 242.296875 103.125 Z M 242.296875 103.132812 " fill-opacity="1" fill-rule="nonzero"/><path fill="#ec5f55" d="M 198.125 213.023438 C 206.378906 213.023438 213.070312 206.328125 213.070312 198.082031 C 213.070312 191.957031 209.375 186.703125 204.101562 184.398438 C 202.359375 183.710938 200.484375 183.304688 198.492188 183.304688 C 190.113281 183.304688 183.335938 190.027344 183.199219 198.375 C 183.359375 206.484375 189.964844 213.023438 198.125 213.023438 Z M 198.125 213.023438 " fill-opacity="1" fill-rule="nonzero"/><path fill="#e6bc42" d="M 213.386719 135.074219 C 213.386719 151.152344 219.125 166.628906 229.652344 178.789062 C 229.792969 178.953125 229.914062 179.089844 230.074219 179.242188 L 233.089844 182.257812 C 236.429688 185.597656 241.875 185.597656 245.207031 182.257812 L 245.3125 182.152344 C 248.652344 178.8125 248.652344 173.367188 245.3125 170.035156 C 236 160.726562 230.828125 148.242188 230.828125 135.082031 C 230.828125 130.007812 231.625 125.046875 233.105469 120.3125 C 233.453125 119.113281 233.882812 117.945312 234.320312 116.777344 C 228.03125 120.34375 221.257812 122.957031 214.207031 124.535156 C 213.65625 128.003906 213.378906 131.523438 213.378906 135.074219 Z M 213.386719 135.074219 " fill-opacity="1" fill-rule="nonzero"/><path fill="#e6bc42" d="M 276.085938 135.074219 C 276.085938 126.820312 269.390625 120.132812 261.140625 120.132812 C 256.101562 120.132812 251.667969 122.640625 248.960938 126.457031 C 247.324219 128.890625 246.367188 131.824219 246.367188 134.984375 C 246.367188 140.214844 249 144.828125 253.003906 147.585938 C 255.347656 149.117188 258.132812 150.023438 261.140625 150.023438 C 269.398438 150.023438 276.085938 143.328125 276.085938 135.082031 Z M 276.085938 135.074219 " fill-opacity="1" fill-rule="nonzero"/><path fill="#5d85bb" d="M 165.410156 135.074219 C 165.410156 141.421875 164.207031 147.617188 161.914062 153.375 C 168.203125 149.8125 174.980469 147.195312 182.023438 145.621094 C 182.574219 142.152344 182.851562 138.632812 182.851562 135.082031 C 182.851562 119 177.113281 103.523438 166.589844 91.363281 C 166.445312 91.199219 166.324219 91.0625 166.167969 90.914062 L 163.148438 87.898438 C 159.808594 84.558594 154.363281 84.558594 151.03125 87.898438 L 150.917969 88.011719 C 147.578125 91.351562 147.578125 96.792969 150.917969 100.125 C 160.230469 109.433594 165.398438 121.917969 165.398438 135.082031 Z M 165.410156 135.074219 " fill-opacity="1" fill-rule="nonzero"/><g clip-path="url(#38dd734905)"><path fill="#212221" d="M 267.074219 66.140625 C 228.996094 28.070312 167.25 28.070312 129.164062 66.140625 C 91.082031 104.210938 91.082031 165.9375 129.164062 204.011719 C 167.246094 242.082031 228.988281 242.082031 267.074219 204.011719 C 305.15625 165.945312 305.15625 104.21875 267.074219 66.140625 Z M 245.207031 182.257812 C 241.867188 185.597656 236.421875 185.597656 233.089844 182.257812 L 230.074219 179.242188 C 229.921875 179.089844 229.792969 178.953125 229.652344 178.789062 C 219.125 166.628906 213.386719 151.152344 213.386719 135.074219 C 213.386719 131.523438 213.664062 127.996094 214.214844 124.535156 C 221.265625 122.957031 228.039062 120.34375 234.324219 116.777344 C 233.890625 117.945312 233.457031 119.113281 233.113281 120.3125 C 231.632812 125.039062 230.835938 130.007812 230.835938 135.082031 C 230.835938 148.242188 236.007812 160.726562 245.320312 170.035156 C 248.660156 173.375 248.660156 178.820312 245.320312 182.152344 L 245.214844 182.257812 Z M 183.199219 198.375 C 183.335938 190.027344 190.113281 183.304688 198.492188 183.304688 C 200.476562 183.304688 202.359375 183.710938 204.101562 184.398438 C 209.375 186.703125 213.070312 191.957031 213.070312 198.082031 C 213.070312 206.335938 206.371094 213.023438 198.125 213.023438 C 189.875 213.023438 183.367188 206.484375 183.199219 198.375 Z M 198.125 167.78125 C 184.957031 167.78125 172.46875 172.953125 163.15625 182.265625 C 159.816406 185.605469 154.371094 185.605469 151.039062 182.265625 L 150.933594 182.152344 C 147.609375 178.828125 147.601562 173.421875 150.894531 170.082031 L 151.007812 169.960938 L 153.949219 167.023438 C 154.039062 166.929688 154.132812 166.847656 154.222656 166.765625 C 154.363281 166.636719 154.507812 166.523438 154.652344 166.402344 C 166.777344 156.015625 182.152344 150.339844 198.128906 150.339844 C 201.683594 150.339844 205.210938 150.617188 208.671875 151.167969 C 209.609375 155.328125 210.941406 159.371094 212.570312 163.296875 C 213.582031 165.972656 214.734375 168.582031 216.011719 171.128906 C 210.371094 168.945312 204.328125 167.773438 198.125 167.773438 Z M 135.105469 150.03125 C 126.847656 150.03125 120.160156 143.335938 120.160156 135.089844 C 120.160156 126.839844 126.855469 120.148438 135.105469 120.148438 C 143.355469 120.148438 150.050781 126.839844 150.050781 135.089844 C 150.050781 143.335938 143.355469 150.03125 135.105469 150.03125 Z M 213.078125 72.082031 C 213.078125 80.335938 206.378906 87.023438 198.128906 87.023438 C 189.882812 87.023438 183.183594 80.328125 183.183594 72.082031 C 183.183594 63.835938 189.882812 57.140625 198.128906 57.140625 C 206.378906 57.140625 213.078125 63.835938 213.078125 72.082031 Z M 198.128906 102.378906 C 211.296875 102.378906 223.785156 97.207031 233.097656 87.898438 C 236.4375 84.558594 241.882812 84.558594 245.214844 87.898438 L 245.328125 88.011719 C 248.667969 91.351562 248.667969 96.792969 245.328125 100.125 L 242.3125 103.140625 C 242.160156 103.289062 242.023438 103.417969 241.859375 103.5625 C 240.449219 104.785156 238.984375 105.921875 237.484375 107.015625 C 225.933594 115.300781 212.089844 119.777344 197.761719 119.816406 C 194.332031 119.800781 190.929688 119.527344 187.582031 119 C 186.003906 111.953125 183.390625 105.175781 179.820312 98.886719 C 185.582031 101.179688 191.773438 102.386719 198.132812 102.386719 Z M 150.933594 88.011719 L 151.046875 87.898438 C 154.386719 84.558594 159.832031 84.558594 163.164062 87.898438 L 166.179688 90.914062 C 166.332031 91.0625 166.460938 91.199219 166.601562 91.363281 C 177.128906 103.523438 182.867188 119 182.867188 135.082031 C 182.867188 138.632812 182.589844 142.160156 182.039062 145.621094 C 174.988281 147.195312 168.210938 149.8125 161.929688 153.375 C 164.21875 147.625 165.425781 141.429688 165.425781 135.074219 C 165.425781 121.910156 160.253906 109.425781 150.949219 100.117188 C 147.609375 96.777344 147.609375 91.335938 150.949219 88.003906 Z M 246.367188 134.992188 C 246.367188 131.832031 247.324219 128.898438 248.960938 126.464844 C 251.667969 122.648438 256.101562 120.140625 261.140625 120.140625 C 269.398438 120.140625 276.085938 126.832031 276.085938 135.082031 C 276.085938 143.335938 269.390625 150.023438 261.140625 150.023438 C 258.132812 150.023438 255.347656 149.117188 253.003906 147.585938 C 249 144.828125 246.367188 140.214844 246.367188 134.984375 Z M 246.367188 134.992188 " fill-opacity="1" fill-rule="nonzero"/></g><path fill="#212221" d="M 40.289062 291.671875 L 36.570312 284.714844 C 33.449219 286.273438 30.140625 287.058594 26.65625 287.058594 C 22.570312 287.058594 19.054688 286.257812 16.121094 284.644531 L 12.40625 291.601562 L 12.40625 291.671875 L 0.0078125 291.535156 L 26.316406 243.816406 L 52.625 291.535156 L 40.296875 291.671875 Z M 32.644531 277.144531 L 26.308594 265.234375 L 20.179688 276.871094 C 22.199219 278.0625 24.355469 278.667969 26.65625 278.667969 C 28.632812 278.667969 30.628906 278.160156 32.652344 277.152344 Z M 32.644531 277.144531 " fill-opacity="1" fill-rule="nonzero"/><path fill="#212221" d="M 113.027344 245.640625 C 116.746094 246.855469 120.007812 248.589844 122.808594 250.84375 C 125.648438 253.089844 127.859375 255.660156 129.421875 258.554688 C 130.980469 261.449219 131.765625 264.472656 131.765625 267.644531 C 131.765625 270.820312 130.996094 273.925781 129.457031 276.835938 C 127.917969 279.753906 125.703125 282.332031 122.816406 284.585938 C 120.015625 286.832031 116.753906 288.566406 113.035156 289.785156 C 109.316406 291 105.433594 291.609375 101.390625 291.609375 L 81.761719 291.609375 L 81.761719 243.824219 L 101.390625 243.824219 C 105.433594 243.824219 109.308594 244.433594 113.035156 245.648438 Z M 92.710938 282.996094 L 101.390625 282.996094 C 104.929688 282.996094 108.179688 282.308594 111.132812 280.929688 C 114.097656 279.550781 116.433594 277.695312 118.164062 275.351562 C 119.882812 273.003906 120.75 270.441406 120.75 267.636719 C 120.75 264.832031 119.890625 262.339844 118.164062 259.992188 C 116.441406 257.648438 114.097656 255.800781 111.132812 254.453125 C 108.171875 253.105469 104.921875 252.425781 101.390625 252.425781 L 92.710938 252.425781 Z M 92.710938 282.996094 " fill-opacity="1" fill-rule="nonzero"/><path fill="#212221" d="M 193.539062 291.671875 L 189.820312 284.714844 C 186.699219 286.273438 183.390625 287.058594 179.90625 287.058594 C 175.816406 287.058594 172.304688 286.257812 169.371094 284.644531 L 165.652344 291.601562 L 165.652344 291.671875 L 153.257812 291.535156 L 179.566406 243.816406 L 205.875 291.535156 L 193.546875 291.671875 Z M 185.890625 277.144531 L 179.558594 265.234375 L 173.425781 276.871094 C 175.449219 278.0625 177.605469 278.667969 179.90625 278.667969 C 181.878906 278.667969 183.878906 278.160156 185.898438 277.152344 Z M 185.890625 277.144531 " fill-opacity="1" fill-rule="nonzero"/><path fill="#212221" d="M 291.960938 291.601562 L 281.011719 291.601562 L 281.011719 264.402344 L 263.449219 277.964844 L 245.953125 264.402344 L 245.953125 291.601562 L 235.003906 291.601562 L 235.003906 243.75 L 263.449219 265.851562 L 291.960938 243.75 Z M 291.960938 291.601562 " fill-opacity="1" fill-rule="nonzero"/><g clip-path="url(#0e04fb6b3e)"><path fill="#212221" d="M 360.421875 291.671875 L 356.703125 284.714844 C 353.582031 286.273438 350.269531 287.058594 346.789062 287.058594 C 342.699219 287.058594 339.1875 286.257812 336.246094 284.644531 L 332.527344 291.601562 L 332.527344 291.671875 L 320.132812 291.535156 L 346.441406 243.816406 L 372.75 291.535156 Z M 352.773438 277.144531 L 346.441406 265.234375 L 340.308594 276.871094 C 342.332031 278.0625 344.488281 278.667969 346.789062 278.667969 C 348.761719 278.667969 350.761719 278.160156 352.78125 277.152344 Z M 352.773438 277.144531 " fill-opacity="1" fill-rule="nonzero"/></g><path fill="#2b6e69" d="M 79.636719 319.171875 C 78.492188 318.386719 77.222656 317.808594 75.84375 317.429688 C 74.464844 317.054688 73.078125 316.863281 71.6875 316.863281 C 69.953125 316.863281 68.191406 317.234375 66.394531 317.964844 C 64.601562 318.695312 63.109375 319.78125 61.925781 321.222656 C 60.738281 322.660156 60.144531 324.378906 60.144531 326.386719 C 60.144531 328.390625 60.746094 330.214844 61.953125 331.664062 C 63.160156 333.101562 64.675781 334.179688 66.492188 334.90625 C 68.3125 335.628906 70.113281 335.984375 71.898438 335.984375 C 73.316406 335.984375 74.699219 335.785156 76.039062 335.394531 C 77.382812 335.003906 78.605469 334.40625 79.703125 333.601562 L 82.417969 335.945312 C 79.246094 337.917969 75.820312 338.914062 72.164062 338.914062 C 70.089844 338.914062 68.101562 338.605469 66.207031 337.980469 C 64.3125 337.355469 62.59375 336.425781 61.058594 335.175781 C 58.023438 332.734375 56.515625 329.808594 56.515625 326.386719 C 56.515625 322.964844 58.03125 320.136719 61.058594 317.671875 C 62.59375 316.425781 64.3125 315.492188 66.222656 314.867188 C 68.128906 314.242188 70.105469 313.933594 72.15625 313.933594 C 74.011719 313.933594 75.804688 314.1875 77.539062 314.703125 C 79.273438 315.214844 80.875 315.96875 82.335938 316.96875 L 79.621094 319.171875 Z M 79.636719 319.171875 " fill-opacity="1" fill-rule="nonzero"/><path fill="#2b6e69" d="M 123.160156 317.671875 C 126.191406 320.1875 127.699219 323.089844 127.699219 326.386719 C 127.699219 329.679688 126.183594 332.710938 123.160156 335.175781 C 121.644531 336.417969 119.933594 337.355469 118.035156 337.980469 C 116.132812 338.605469 114.136719 338.914062 112.0625 338.914062 C 109.988281 338.914062 107.996094 338.605469 106.105469 337.980469 C 104.210938 337.355469 102.492188 336.425781 100.953125 335.175781 C 97.921875 332.710938 96.414062 329.777344 96.414062 326.386719 C 96.414062 322.992188 97.929688 320.136719 100.953125 317.671875 C 102.492188 316.425781 104.210938 315.492188 106.121094 314.867188 C 108.027344 314.242188 110.003906 313.933594 112.054688 313.933594 C 114.105469 313.933594 116.089844 314.242188 118.011719 314.867188 C 119.925781 315.492188 121.644531 316.421875 123.160156 317.671875 Z M 112.0625 316.863281 C 110.304688 316.863281 108.464844 317.234375 106.550781 317.964844 C 104.632812 318.695312 103.019531 319.789062 101.714844 321.246094 C 100.410156 322.699219 99.753906 324.410156 99.753906 326.394531 C 99.753906 328.375 100.402344 330.125 101.699219 331.578125 C 102.996094 333.035156 104.605469 334.136719 106.519531 334.898438 C 108.433594 335.652344 110.289062 336.035156 112.070312 336.035156 C 113.847656 336.035156 115.695312 335.664062 117.605469 334.917969 C 119.511719 334.171875 121.109375 333.074219 122.398438 331.601562 C 123.695312 330.140625 124.34375 328.40625 124.34375 326.402344 C 124.34375 324.394531 123.695312 322.707031 122.398438 321.253906 C 121.101562 319.796875 119.496094 318.703125 117.582031 317.972656 C 115.667969 317.242188 113.828125 316.871094 112.070312 316.871094 Z M 112.0625 316.863281 " fill-opacity="1" fill-rule="nonzero"/><path fill="#2b6e69" d="M 164.816406 313.933594 L 168.113281 313.933594 L 168.226562 338.765625 L 148.074219 321.003906 L 148.074219 338.878906 L 144.742188 338.914062 L 144.742188 313.933594 L 164.816406 331.292969 Z M 164.816406 313.933594 " fill-opacity="1" fill-rule="nonzero"/><path fill="#2b6e69" d="M 205.226562 313.933594 L 208.523438 313.933594 L 208.636719 338.765625 L 188.488281 321.003906 L 188.488281 338.878906 L 185.152344 338.914062 L 185.152344 313.933594 L 205.234375 331.292969 L 205.234375 313.933594 Z M 205.226562 313.933594 " fill-opacity="1" fill-rule="nonzero"/><path fill="#2b6e69" d="M 248.933594 313.933594 L 248.933594 316.863281 L 228.859375 316.863281 L 228.859375 326.859375 L 239.628906 326.859375 L 239.628906 329.832031 L 228.859375 329.832031 L 228.859375 336.019531 L 248.933594 336.019531 L 248.933594 338.914062 L 225.554688 338.914062 L 225.554688 313.933594 Z M 248.933594 313.933594 " fill-opacity="1" fill-rule="nonzero"/><path fill="#2b6e69" d="M 286.046875 319.171875 C 284.902344 318.386719 283.632812 317.808594 282.253906 317.429688 C 280.875 317.054688 279.488281 316.863281 278.097656 316.863281 C 276.363281 316.863281 274.601562 317.234375 272.804688 317.964844 C 271.011719 318.695312 269.519531 319.78125 268.335938 321.222656 C 267.152344 322.660156 266.554688 324.378906 266.554688 326.386719 C 266.554688 328.390625 267.15625 330.214844 268.371094 331.664062 C 269.585938 333.109375 271.09375 334.179688 272.910156 334.90625 C 274.730469 335.628906 276.53125 335.984375 278.316406 335.984375 C 279.734375 335.984375 281.117188 335.785156 282.457031 335.394531 C 283.800781 335.003906 285.023438 334.40625 286.121094 333.601562 L 288.835938 335.945312 C 285.664062 337.917969 282.238281 338.914062 278.582031 338.914062 C 276.507812 338.914062 274.519531 338.605469 272.625 337.980469 C 270.730469 337.355469 269.011719 336.425781 267.476562 335.175781 C 264.445312 332.734375 262.933594 329.808594 262.933594 326.386719 C 262.933594 322.964844 264.449219 320.136719 267.476562 317.671875 C 269.011719 316.425781 270.730469 315.492188 272.640625 314.867188 C 274.546875 314.242188 276.523438 313.933594 278.574219 313.933594 C 280.429688 313.933594 282.222656 314.1875 283.957031 314.703125 C 285.691406 315.214844 287.292969 315.96875 288.761719 316.96875 Z M 286.046875 319.171875 " fill-opacity="1" fill-rule="nonzero"/><path fill="#2b6e69" d="M 327.226562 316.609375 L 316.972656 316.609375 L 316.972656 338.914062 L 314.152344 338.914062 L 314.152344 316.609375 L 303.859375 316.609375 L 303.859375 313.933594 L 327.234375 313.933594 L 327.234375 316.609375 Z M 327.226562 316.609375 " fill-opacity="1" fill-rule="nonzero"/></svg>